# xmcd
#
# Track frame offsets: 
#        150
#        16285
#        28982
#        41985
#        54115
#        68255
#        77520
#        89032
#        100252
#        118637
#        133010
#        146452
#        160517
#
# Disc length: 2309 seconds
#
# Revision: 2
# Processed by: cddbd v1.5.2PL0 Copyright (c) Steve Scherf et al.
# Submitted via: ExactAudioCopyFreeDBPlugin 1.0
#
DISCID=a209030d
DTITLE=The Paladins - Slippin' In
DYEAR=1999
DGENRE=Blues
TTITLE0=You're The One That Done It
TTITLE1=Rain Rain
TTITLE2=The Hard Way
TTITLE3=Slippin' In
TTITLE4=Baby Don't Move Me
TTITLE5=Five Minute Love Affair
TTITLE6=Strong Boy
TTITLE7=Gone Again
TTITLE8=Judgment Day
TTITLE9=Return To Polara
TTITLE10=California Boogie
TTITLE11=Vampira
TTITLE12=Lady Luck
EXTD=Released 1999\nDave Gonzalez - guitar - vocals\nBrian Fahey - dru
EXTD=ms\nJoe Jazdzewski - drums
EXTT0=
EXTT1=
EXTT2=
EXTT3=
EXTT4=
EXTT5=
EXTT6=
EXTT7=
EXTT8=
EXTT9=
EXTT10=
EXTT11=
EXTT12=
PLAYORDER=
